<?xml version="1.0" encoding="UTF-8" standalone="no"?>
<!DOCTYPE svg PUBLIC "-//W3C//DTD SVG 1.1//EN"
 "http://www.w3.org/Graphics/SVG/1.1/DTD/svg11.dtd">
<!-- Generated by graphviz version 2.43.0 (0)
 -->
<!-- Title: %3 Pages: 1 -->
<svg width="214pt" height="332pt"
 viewBox="0.00 0.00 214.00 332.00" xmlns="http://www.w3.org/2000/svg" xmlns:xlink="http://www.w3.org/1999/xlink">
<g id="graph0" class="graph" transform="scale(1 1) rotate(0) translate(4 328)">
<title>%3</title>
<polygon fill="white" stroke="transparent" points="-4,4 -4,-328 210,-328 210,4 -4,4"/>
<!-- 100.0 -->
<g id="node1" class="node">
<title>100.0</title>
<ellipse fill="none" stroke="red" cx="65" cy="-306" rx="37.09" ry="18"/>
<text text-anchor="middle" x="65" y="-302.3" font-family="Times,serif" font-size="14.00">100.0</text>
</g>
<!-- 80.0 -->
<g id="node2" class="node">
<title>80.0</title>
<ellipse fill="none" stroke="blue" cx="65" cy="-234" rx="31.4" ry="18"/>
<text text-anchor="middle" x="65" y="-230.3" font-family="Times,serif" font-size="14.00">80.0</text>
</g>
<!-- 100.0&#45;&gt;80.0 -->
<g id="edge1" class="edge">
<title>100.0&#45;&gt;80.0</title>
<path fill="none" stroke="black" d="M65,-287.7C65,-279.98 65,-270.71 65,-262.11"/>
<polygon fill="black" stroke="black" points="68.5,-262.1 65,-252.1 61.5,-262.1 68.5,-262.1"/>
</g>
<!-- 4.0 -->
<g id="node3" class="node">
<title>4.0</title>
<ellipse fill="none" stroke="blue" cx="27" cy="-162" rx="27" ry="18"/>
<text text-anchor="middle" x="27" y="-158.3" font-family="Times,serif" font-size="14.00">4.0</text>
</g>
<!-- 80.0&#45;&gt;4.0 -->
<g id="edge2" class="edge">
<title>80.0&#45;&gt;4.0</title>
<path fill="none" stroke="black" d="M55.99,-216.41C51.45,-208.04 45.84,-197.71 40.77,-188.37"/>
<polygon fill="black" stroke="black" points="43.79,-186.59 35.94,-179.47 37.64,-189.93 43.79,-186.59"/>
</g>
<!-- 60.0 -->
<g id="node4" class="node">
<title>60.0</title>
<ellipse fill="none" stroke="green" cx="103" cy="-162" rx="31.4" ry="18"/>
<text text-anchor="middle" x="103" y="-158.3" font-family="Times,serif" font-size="14.00">60.0</text>
</g>
<!-- 80.0&#45;&gt;60.0 -->
<g id="edge3" class="edge">
<title>80.0&#45;&gt;60.0</title>
<path fill="none" stroke="black" d="M74.01,-216.41C78.55,-208.04 84.16,-197.71 89.23,-188.37"/>
<polygon fill="black" stroke="black" points="92.36,-189.93 94.06,-179.47 86.21,-186.59 92.36,-189.93"/>
</g>
<!-- 30.0 -->
<g id="node5" class="node">
<title>30.0</title>
<ellipse fill="none" stroke="green" cx="63" cy="-90" rx="31.4" ry="18"/>
<text text-anchor="middle" x="63" y="-86.3" font-family="Times,serif" font-size="14.00">30.0</text>
</g>
<!-- 60.0&#45;&gt;30.0 -->
<g id="edge4" class="edge">
<title>60.0&#45;&gt;30.0</title>
<path fill="none" stroke="black" d="M93.72,-144.76C88.95,-136.4 83.01,-126.02 77.63,-116.61"/>
<polygon fill="black" stroke="black" points="80.51,-114.58 72.5,-107.63 74.43,-118.05 80.51,-114.58"/>
</g>
<!-- 15.0 -->
<g id="node6" class="node">
<title>15.0</title>
<ellipse fill="none" stroke="black" cx="143" cy="-90" rx="31.4" ry="18"/>
<text text-anchor="middle" x="143" y="-86.3" font-family="Times,serif" font-size="14.00">15.0</text>
</g>
<!-- 60.0&#45;&gt;15.0 -->
<g id="edge5" class="edge">
<title>60.0&#45;&gt;15.0</title>
<path fill="none" stroke="black" d="M112.28,-144.76C117.05,-136.4 122.99,-126.02 128.37,-116.61"/>
<polygon fill="black" stroke="black" points="131.57,-118.05 133.5,-107.63 125.49,-114.58 131.57,-118.05"/>
</g>
<!-- 5.0 -->
<g id="node7" class="node">
<title>5.0</title>
<ellipse fill="none" stroke="black" cx="107" cy="-18" rx="27" ry="18"/>
<text text-anchor="middle" x="107" y="-14.3" font-family="Times,serif" font-size="14.00">5.0</text>
</g>
<!-- 15.0&#45;&gt;5.0 -->
<g id="edge6" class="edge">
<title>15.0&#45;&gt;5.0</title>
<path fill="none" stroke="black" d="M134.47,-72.41C130.16,-64.04 124.85,-53.71 120.05,-44.37"/>
<polygon fill="black" stroke="black" points="123.16,-42.76 115.47,-35.47 116.93,-45.96 123.16,-42.76"/>
</g>
<!-- 0.0 -->
<g id="node8" class="node">
<title>0.0</title>
<ellipse fill="none" stroke="red" cx="179" cy="-18" rx="27" ry="18"/>
<text text-anchor="middle" x="179" y="-14.3" font-family="Times,serif" font-size="14.00">0.0</text>
</g>
<!-- 15.0&#45;&gt;0.0 -->
<g id="edge7" class="edge">
<title>15.0&#45;&gt;0.0</title>
<path fill="none" stroke="black" d="M151.53,-72.41C155.84,-64.04 161.15,-53.71 165.95,-44.37"/>
<polygon fill="black" stroke="black" points="169.07,-45.96 170.53,-35.47 162.84,-42.76 169.07,-45.96"/>
</g>
</g>
</svg>
