<?xml version="1.0" encoding="UTF-8" standalone="no"?>
<!DOCTYPE svg PUBLIC "-//W3C//DTD SVG 1.1//EN"
 "http://www.w3.org/Graphics/SVG/1.1/DTD/svg11.dtd">
<!-- Generated by graphviz version 2.43.0 (0)
 -->
<!-- Title: %3 Pages: 1 -->
<svg width="232pt" height="332pt"
 viewBox="0.00 0.00 232.04 332.00" xmlns="http://www.w3.org/2000/svg" xmlns:xlink="http://www.w3.org/1999/xlink">
<g id="graph0" class="graph" transform="scale(1 1) rotate(0) translate(4 328)">
<title>%3</title>
<polygon fill="white" stroke="transparent" points="-4,4 -4,-328 228.04,-328 228.04,4 -4,4"/>
<!-- 0.0 -->
<g id="node1" class="node">
<title>0.0</title>
<ellipse fill="none" stroke="red" cx="74.45" cy="-306" rx="27" ry="18"/>
<text text-anchor="middle" x="74.45" y="-302.3" font-family="Times,serif" font-size="14.00">0.0</text>
</g>
<!-- &#45;0.2 -->
<g id="node2" class="node">
<title>&#45;0.2</title>
<ellipse fill="none" stroke="blue" cx="74.45" cy="-234" rx="28.7" ry="18"/>
<text text-anchor="middle" x="74.45" y="-230.3" font-family="Times,serif" font-size="14.00">&#45;0.2</text>
</g>
<!-- 0.0&#45;&gt;&#45;0.2 -->
<g id="edge1" class="edge">
<title>0.0&#45;&gt;&#45;0.2</title>
<path fill="none" stroke="black" d="M74.45,-287.7C74.45,-279.98 74.45,-270.71 74.45,-262.11"/>
<polygon fill="black" stroke="black" points="77.95,-262.1 74.45,-252.1 70.95,-262.1 77.95,-262.1"/>
</g>
<!-- &#45;0.96 -->
<g id="node3" class="node">
<title>&#45;0.96</title>
<ellipse fill="none" stroke="blue" cx="34.45" cy="-162" rx="34.39" ry="18"/>
<text text-anchor="middle" x="34.45" y="-158.3" font-family="Times,serif" font-size="14.00">&#45;0.96</text>
</g>
<!-- &#45;0.2&#45;&gt;&#45;0.96 -->
<g id="edge2" class="edge">
<title>&#45;0.2&#45;&gt;&#45;0.96</title>
<path fill="none" stroke="black" d="M65.17,-216.76C60.39,-208.4 54.46,-198.02 49.08,-188.61"/>
<polygon fill="black" stroke="black" points="51.95,-186.58 43.95,-179.63 45.87,-190.05 51.95,-186.58"/>
</g>
<!-- &#45;0.4 -->
<g id="node4" class="node">
<title>&#45;0.4</title>
<ellipse fill="none" stroke="green" cx="115.45" cy="-162" rx="28.7" ry="18"/>
<text text-anchor="middle" x="115.45" y="-158.3" font-family="Times,serif" font-size="14.00">&#45;0.4</text>
</g>
<!-- &#45;0.2&#45;&gt;&#45;0.4 -->
<g id="edge3" class="edge">
<title>&#45;0.2&#45;&gt;&#45;0.4</title>
<path fill="none" stroke="black" d="M83.96,-216.76C88.98,-208.19 95.24,-197.49 100.86,-187.9"/>
<polygon fill="black" stroke="black" points="103.96,-189.55 105.99,-179.15 97.92,-186.01 103.96,-189.55"/>
</g>
<!-- &#45;0.7 -->
<g id="node5" class="node">
<title>&#45;0.7</title>
<ellipse fill="none" stroke="green" cx="74.45" cy="-90" rx="28.7" ry="18"/>
<text text-anchor="middle" x="74.45" y="-86.3" font-family="Times,serif" font-size="14.00">&#45;0.7</text>
</g>
<!-- &#45;0.4&#45;&gt;&#45;0.7 -->
<g id="edge4" class="edge">
<title>&#45;0.4&#45;&gt;&#45;0.7</title>
<path fill="none" stroke="black" d="M105.94,-144.76C100.92,-136.19 94.65,-125.49 89.03,-115.9"/>
<polygon fill="black" stroke="black" points="91.98,-114.01 83.9,-107.15 85.94,-117.55 91.98,-114.01"/>
</g>
<!-- &#45;0.85 -->
<g id="node6" class="node">
<title>&#45;0.85</title>
<ellipse fill="none" stroke="black" cx="155.45" cy="-90" rx="34.39" ry="18"/>
<text text-anchor="middle" x="155.45" y="-86.3" font-family="Times,serif" font-size="14.00">&#45;0.85</text>
</g>
<!-- &#45;0.4&#45;&gt;&#45;0.85 -->
<g id="edge5" class="edge">
<title>&#45;0.4&#45;&gt;&#45;0.85</title>
<path fill="none" stroke="black" d="M124.72,-144.76C129.5,-136.4 135.44,-126.02 140.81,-116.61"/>
<polygon fill="black" stroke="black" points="144.02,-118.05 145.94,-107.63 137.94,-114.58 144.02,-118.05"/>
</g>
<!-- &#45;0.95 -->
<g id="node7" class="node">
<title>&#45;0.95</title>
<ellipse fill="none" stroke="black" cx="114.45" cy="-18" rx="34.39" ry="18"/>
<text text-anchor="middle" x="114.45" y="-14.3" font-family="Times,serif" font-size="14.00">&#45;0.95</text>
</g>
<!-- &#45;0.85&#45;&gt;&#45;0.95 -->
<g id="edge6" class="edge">
<title>&#45;0.85&#45;&gt;&#45;0.95</title>
<path fill="none" stroke="black" d="M145.73,-72.41C140.83,-64.04 134.78,-53.71 129.31,-44.37"/>
<polygon fill="black" stroke="black" points="132.17,-42.33 124.09,-35.47 126.13,-45.87 132.17,-42.33"/>
</g>
<!-- &#45;1.0 -->
<g id="node8" class="node">
<title>&#45;1.0</title>
<ellipse fill="none" stroke="red" cx="195.45" cy="-18" rx="28.7" ry="18"/>
<text text-anchor="middle" x="195.45" y="-14.3" font-family="Times,serif" font-size="14.00">&#45;1.0</text>
</g>
<!-- &#45;0.85&#45;&gt;&#45;1.0 -->
<g id="edge7" class="edge">
<title>&#45;0.85&#45;&gt;&#45;1.0</title>
<path fill="none" stroke="black" d="M164.93,-72.41C169.71,-64.04 175.61,-53.71 180.95,-44.37"/>
<polygon fill="black" stroke="black" points="184.11,-45.89 186.04,-35.47 178.04,-42.42 184.11,-45.89"/>
</g>
</g>
</svg>
