<?xml version="1.0" encoding="UTF-8" standalone="no"?>
<!DOCTYPE svg PUBLIC "-//W3C//DTD SVG 1.1//EN"
 "http://www.w3.org/Graphics/SVG/1.1/DTD/svg11.dtd">
<!-- Generated by graphviz version 2.43.0 (0)
 -->
<!-- Title: %3 Pages: 1 -->
<svg width="138pt" height="188pt"
 viewBox="0.00 0.00 137.60 188.00" xmlns="http://www.w3.org/2000/svg" xmlns:xlink="http://www.w3.org/1999/xlink">
<g id="graph0" class="graph" transform="scale(1 1) rotate(0) translate(4 184)">
<title>%3</title>
<polygon fill="white" stroke="transparent" points="-4,4 -4,-184 133.6,-184 133.6,4 -4,4"/>
<!-- 10.0 -->
<g id="node1" class="node">
<title>10.0</title>
<ellipse fill="none" stroke="red" cx="64" cy="-162" rx="31.4" ry="18"/>
<text text-anchor="middle" x="64" y="-158.3" font-family="Times,serif" font-size="14.00">10.0</text>
</g>
<!-- 5.0 -->
<g id="node2" class="node">
<title>5.0</title>
<ellipse fill="none" stroke="blue" cx="64" cy="-90" rx="27" ry="18"/>
<text text-anchor="middle" x="64" y="-86.3" font-family="Times,serif" font-size="14.00">5.0</text>
</g>
<!-- 10.0&#45;&gt;5.0 -->
<g id="edge1" class="edge">
<title>10.0&#45;&gt;5.0</title>
<path fill="none" stroke="black" d="M64,-143.7C64,-135.98 64,-126.71 64,-118.11"/>
<polygon fill="black" stroke="black" points="67.5,-118.1 64,-108.1 60.5,-118.1 67.5,-118.1"/>
</g>
<!-- 0.0 -->
<g id="node3" class="node">
<title>0.0</title>
<ellipse fill="none" stroke="blue" cx="27" cy="-18" rx="27" ry="18"/>
<text text-anchor="middle" x="27" y="-14.3" font-family="Times,serif" font-size="14.00">0.0</text>
</g>
<!-- 5.0&#45;&gt;0.0 -->
<g id="edge2" class="edge">
<title>5.0&#45;&gt;0.0</title>
<path fill="none" stroke="black" d="M55.42,-72.76C50.94,-64.28 45.35,-53.71 40.32,-44.2"/>
<polygon fill="black" stroke="black" points="43.3,-42.35 35.54,-35.15 37.11,-45.62 43.3,-42.35"/>
</g>
<!-- &#45;1.0 -->
<g id="node4" class="node">
<title>&#45;1.0</title>
<ellipse fill="none" stroke="red" cx="101" cy="-18" rx="28.7" ry="18"/>
<text text-anchor="middle" x="101" y="-14.3" font-family="Times,serif" font-size="14.00">&#45;1.0</text>
</g>
<!-- 5.0&#45;&gt;&#45;1.0 -->
<g id="edge3" class="edge">
<title>5.0&#45;&gt;&#45;1.0</title>
<path fill="none" stroke="black" d="M72.58,-72.76C77,-64.4 82.49,-54.02 87.47,-44.61"/>
<polygon fill="black" stroke="black" points="90.63,-46.11 92.21,-35.63 84.44,-42.84 90.63,-46.11"/>
</g>
</g>
</svg>
