<?xml version="1.0" encoding="UTF-8" standalone="no"?>
<!DOCTYPE svg PUBLIC "-//W3C//DTD SVG 1.1//EN"
 "http://www.w3.org/Graphics/SVG/1.1/DTD/svg11.dtd">
<!-- Generated by graphviz version 2.43.0 (0)
 -->
<!-- Title: %3 Pages: 1 -->
<svg width="188pt" height="188pt"
 viewBox="0.00 0.00 187.59 188.00" xmlns="http://www.w3.org/2000/svg" xmlns:xlink="http://www.w3.org/1999/xlink">
<g id="graph0" class="graph" transform="scale(1 1) rotate(0) translate(4 184)">
<title>%3</title>
<polygon fill="white" stroke="transparent" points="-4,4 -4,-184 183.59,-184 183.59,4 -4,4"/>
<!-- 0.0 -->
<g id="node1" class="node">
<title>0.0</title>
<ellipse fill="none" stroke="red" cx="101" cy="-162" rx="27" ry="18"/>
<text text-anchor="middle" x="101" y="-158.3" font-family="Times,serif" font-size="14.00">0.0</text>
</g>
<!-- &#45;0.45454 -->
<g id="node2" class="node">
<title>&#45;0.45454</title>
<ellipse fill="none" stroke="blue" cx="101" cy="-90" rx="51.99" ry="18"/>
<text text-anchor="middle" x="101" y="-86.3" font-family="Times,serif" font-size="14.00">&#45;0.45454</text>
</g>
<!-- 0.0&#45;&gt;&#45;0.45454 -->
<g id="edge1" class="edge">
<title>0.0&#45;&gt;&#45;0.45454</title>
<path fill="none" stroke="black" d="M101,-143.7C101,-135.98 101,-126.71 101,-118.11"/>
<polygon fill="black" stroke="black" points="104.5,-118.1 101,-108.1 97.5,-118.1 104.5,-118.1"/>
</g>
<!-- &#45;0.90909 -->
<g id="node3" class="node">
<title>&#45;0.90909</title>
<ellipse fill="none" stroke="blue" cx="52" cy="-18" rx="51.99" ry="18"/>
<text text-anchor="middle" x="52" y="-14.3" font-family="Times,serif" font-size="14.00">&#45;0.90909</text>
</g>
<!-- &#45;0.45454&#45;&gt;&#45;0.90909 -->
<g id="edge2" class="edge">
<title>&#45;0.45454&#45;&gt;&#45;0.90909</title>
<path fill="none" stroke="black" d="M89.38,-72.41C83.49,-63.99 76.2,-53.58 69.64,-44.2"/>
<polygon fill="black" stroke="black" points="72.47,-42.14 63.86,-35.96 66.73,-46.16 72.47,-42.14"/>
</g>
<!-- &#45;1.0 -->
<g id="node4" class="node">
<title>&#45;1.0</title>
<ellipse fill="none" stroke="red" cx="151" cy="-18" rx="28.7" ry="18"/>
<text text-anchor="middle" x="151" y="-14.3" font-family="Times,serif" font-size="14.00">&#45;1.0</text>
</g>
<!-- &#45;0.45454&#45;&gt;&#45;1.0 -->
<g id="edge3" class="edge">
<title>&#45;0.45454&#45;&gt;&#45;1.0</title>
<path fill="none" stroke="black" d="M112.84,-72.41C119.04,-63.74 126.73,-52.97 133.58,-43.38"/>
<polygon fill="black" stroke="black" points="136.61,-45.16 139.58,-34.99 130.91,-41.09 136.61,-45.16"/>
</g>
</g>
</svg>
