<?xml version="1.0" encoding="UTF-8" standalone="no"?>
<!DOCTYPE svg PUBLIC "-//W3C//DTD SVG 1.1//EN"
 "http://www.w3.org/Graphics/SVG/1.1/DTD/svg11.dtd">
<!-- Generated by graphviz version 2.43.0 (0)
 -->
<!-- Title: %3 Pages: 1 -->
<svg width="321pt" height="332pt"
 viewBox="0.00 0.00 320.59 332.00" xmlns="http://www.w3.org/2000/svg" xmlns:xlink="http://www.w3.org/1999/xlink">
<g id="graph0" class="graph" transform="scale(1 1) rotate(0) translate(4 328)">
<title>%3</title>
<polygon fill="white" stroke="transparent" points="-4,4 -4,-328 316.59,-328 316.59,4 -4,4"/>
<!-- 0.0 -->
<g id="node1" class="node">
<title>0.0</title>
<ellipse fill="none" stroke="red" cx="113" cy="-306" rx="27" ry="18"/>
<text text-anchor="middle" x="113" y="-302.3" font-family="Times,serif" font-size="14.00">0.0</text>
</g>
<!-- &#45;0.33333 -->
<g id="node2" class="node">
<title>&#45;0.33333</title>
<ellipse fill="none" stroke="blue" cx="113" cy="-234" rx="51.99" ry="18"/>
<text text-anchor="middle" x="113" y="-230.3" font-family="Times,serif" font-size="14.00">&#45;0.33333</text>
</g>
<!-- 0.0&#45;&gt;&#45;0.33333 -->
<g id="edge1" class="edge">
<title>0.0&#45;&gt;&#45;0.33333</title>
<path fill="none" stroke="black" d="M113,-287.7C113,-279.98 113,-270.71 113,-262.11"/>
<polygon fill="black" stroke="black" points="116.5,-262.1 113,-252.1 109.5,-262.1 116.5,-262.1"/>
</g>
<!-- &#45;0.97143 -->
<g id="node3" class="node">
<title>&#45;0.97143</title>
<ellipse fill="none" stroke="blue" cx="52" cy="-162" rx="51.99" ry="18"/>
<text text-anchor="middle" x="52" y="-158.3" font-family="Times,serif" font-size="14.00">&#45;0.97143</text>
</g>
<!-- &#45;0.33333&#45;&gt;&#45;0.97143 -->
<g id="edge2" class="edge">
<title>&#45;0.33333&#45;&gt;&#45;0.97143</title>
<path fill="none" stroke="black" d="M98.54,-216.41C90.94,-207.69 81.49,-196.85 73.09,-187.21"/>
<polygon fill="black" stroke="black" points="75.56,-184.71 66.35,-179.47 70.28,-189.31 75.56,-184.71"/>
</g>
<!-- &#45;0.42857 -->
<g id="node4" class="node">
<title>&#45;0.42857</title>
<ellipse fill="none" stroke="green" cx="174" cy="-162" rx="51.99" ry="18"/>
<text text-anchor="middle" x="174" y="-158.3" font-family="Times,serif" font-size="14.00">&#45;0.42857</text>
</g>
<!-- &#45;0.33333&#45;&gt;&#45;0.42857 -->
<g id="edge3" class="edge">
<title>&#45;0.33333&#45;&gt;&#45;0.42857</title>
<path fill="none" stroke="black" d="M127.45,-216.41C135.05,-207.69 144.5,-196.85 152.9,-187.21"/>
<polygon fill="black" stroke="black" points="155.71,-189.31 159.64,-179.47 150.43,-184.71 155.71,-189.31"/>
</g>
<!-- &#45;0.71429 -->
<g id="node5" class="node">
<title>&#45;0.71429</title>
<ellipse fill="none" stroke="green" cx="113" cy="-90" rx="51.99" ry="18"/>
<text text-anchor="middle" x="113" y="-86.3" font-family="Times,serif" font-size="14.00">&#45;0.71429</text>
</g>
<!-- &#45;0.42857&#45;&gt;&#45;0.71429 -->
<g id="edge4" class="edge">
<title>&#45;0.42857&#45;&gt;&#45;0.71429</title>
<path fill="none" stroke="black" d="M159.54,-144.41C151.94,-135.69 142.49,-124.85 134.09,-115.21"/>
<polygon fill="black" stroke="black" points="136.56,-112.71 127.35,-107.47 131.28,-117.31 136.56,-112.71"/>
</g>
<!-- &#45;0.90476 -->
<g id="node6" class="node">
<title>&#45;0.90476</title>
<ellipse fill="none" stroke="black" cx="235" cy="-90" rx="51.99" ry="18"/>
<text text-anchor="middle" x="235" y="-86.3" font-family="Times,serif" font-size="14.00">&#45;0.90476</text>
</g>
<!-- &#45;0.42857&#45;&gt;&#45;0.90476 -->
<g id="edge5" class="edge">
<title>&#45;0.42857&#45;&gt;&#45;0.90476</title>
<path fill="none" stroke="black" d="M188.45,-144.41C196.05,-135.69 205.5,-124.85 213.9,-115.21"/>
<polygon fill="black" stroke="black" points="216.71,-117.31 220.64,-107.47 211.43,-112.71 216.71,-117.31"/>
</g>
<!-- &#45;0.95238 -->
<g id="node7" class="node">
<title>&#45;0.95238</title>
<ellipse fill="none" stroke="black" cx="185" cy="-18" rx="51.99" ry="18"/>
<text text-anchor="middle" x="185" y="-14.3" font-family="Times,serif" font-size="14.00">&#45;0.95238</text>
</g>
<!-- &#45;0.90476&#45;&gt;&#45;0.95238 -->
<g id="edge6" class="edge">
<title>&#45;0.90476&#45;&gt;&#45;0.95238</title>
<path fill="none" stroke="black" d="M223.15,-72.41C217.13,-63.99 209.7,-53.58 203,-44.2"/>
<polygon fill="black" stroke="black" points="205.77,-42.06 197.11,-35.96 200.07,-46.13 205.77,-42.06"/>
</g>
<!-- &#45;1.0 -->
<g id="node8" class="node">
<title>&#45;1.0</title>
<ellipse fill="none" stroke="red" cx="284" cy="-18" rx="28.7" ry="18"/>
<text text-anchor="middle" x="284" y="-14.3" font-family="Times,serif" font-size="14.00">&#45;1.0</text>
</g>
<!-- &#45;0.90476&#45;&gt;&#45;1.0 -->
<g id="edge7" class="edge">
<title>&#45;0.90476&#45;&gt;&#45;1.0</title>
<path fill="none" stroke="black" d="M246.61,-72.41C252.67,-63.74 260.22,-52.97 266.93,-43.38"/>
<polygon fill="black" stroke="black" points="269.94,-45.19 272.8,-34.99 264.2,-41.17 269.94,-45.19"/>
</g>
</g>
</svg>
